<mxfile host="app.diagrams.net" modified="2024-05-23T11:23:46.345Z" agent="Mozilla/5.0 (Windows NT 10.0; Win64; x64) AppleWebKit/537.36 (KHTML, like Gecko) Chrome/121.0.0.0 Safari/537.36" etag="fjW8X-MBchex1vMJQhRX" version="24.4.6" type="device">
  <diagram name="PÃ¡gina-1" id="1lL1DVBSMN2BYuXzL2Ec">
    <mxGraphModel dx="1434" dy="1951" grid="1" gridSize="10" guides="1" tooltips="1" connect="1" arrows="1" fold="1" page="1" pageScale="1" pageWidth="827" pageHeight="1169" math="0" shadow="0">
      <root>
        <mxCell id="0" />
        <mxCell id="1" parent="0" />
        <mxCell id="Oh-GxpIX2GTyTfQmpa1h-4" value="" style="edgeStyle=orthogonalEdgeStyle;rounded=0;orthogonalLoop=1;jettySize=auto;html=1;" edge="1" parent="1" source="Oh-GxpIX2GTyTfQmpa1h-2" target="Oh-GxpIX2GTyTfQmpa1h-3">
          <mxGeometry relative="1" as="geometry" />
        </mxCell>
        <mxCell id="Oh-GxpIX2GTyTfQmpa1h-2" value="&lt;font style=&quot;vertical-align: inherit;&quot;&gt;&lt;font style=&quot;vertical-align: inherit;&quot;&gt;inicio&lt;/font&gt;&lt;/font&gt;" style="ellipse;whiteSpace=wrap;html=1;" vertex="1" parent="1">
          <mxGeometry x="370" y="-330" width="120" height="80" as="geometry" />
        </mxCell>
        <mxCell id="Oh-GxpIX2GTyTfQmpa1h-8" value="" style="edgeStyle=orthogonalEdgeStyle;rounded=0;orthogonalLoop=1;jettySize=auto;html=1;" edge="1" parent="1" source="Oh-GxpIX2GTyTfQmpa1h-3" target="Oh-GxpIX2GTyTfQmpa1h-7">
          <mxGeometry relative="1" as="geometry" />
        </mxCell>
        <mxCell id="Oh-GxpIX2GTyTfQmpa1h-3" value="&lt;font style=&quot;vertical-align: inherit;&quot;&gt;&lt;font style=&quot;vertical-align: inherit;&quot;&gt;CAMPO DE CADASTRO&lt;/font&gt;&lt;/font&gt;&lt;div&gt;&lt;font style=&quot;vertical-align: inherit;&quot;&gt;&lt;font style=&quot;vertical-align: inherit;&quot;&gt;&lt;br&gt;&lt;/font&gt;&lt;/font&gt;&lt;/div&gt;" style="whiteSpace=wrap;html=1;" vertex="1" parent="1">
          <mxGeometry x="370" y="-200" width="120" height="60" as="geometry" />
        </mxCell>
        <mxCell id="Oh-GxpIX2GTyTfQmpa1h-10" value="" style="edgeStyle=orthogonalEdgeStyle;rounded=0;orthogonalLoop=1;jettySize=auto;html=1;" edge="1" parent="1" source="Oh-GxpIX2GTyTfQmpa1h-7" target="Oh-GxpIX2GTyTfQmpa1h-9">
          <mxGeometry relative="1" as="geometry" />
        </mxCell>
        <mxCell id="Oh-GxpIX2GTyTfQmpa1h-7" value="&lt;font style=&quot;vertical-align: inherit;&quot;&gt;&lt;font style=&quot;vertical-align: inherit;&quot;&gt;PREENCHER CAMPOS&lt;/font&gt;&lt;/font&gt;" style="whiteSpace=wrap;html=1;" vertex="1" parent="1">
          <mxGeometry x="370" y="-70" width="120" height="60" as="geometry" />
        </mxCell>
        <mxCell id="Oh-GxpIX2GTyTfQmpa1h-14" value="&lt;font style=&quot;vertical-align: inherit;&quot;&gt;&lt;font style=&quot;vertical-align: inherit;&quot;&gt;SIM&lt;/font&gt;&lt;/font&gt;" style="edgeStyle=orthogonalEdgeStyle;rounded=0;orthogonalLoop=1;jettySize=auto;html=1;" edge="1" parent="1" source="Oh-GxpIX2GTyTfQmpa1h-9" target="Oh-GxpIX2GTyTfQmpa1h-13">
          <mxGeometry relative="1" as="geometry" />
        </mxCell>
        <mxCell id="Oh-GxpIX2GTyTfQmpa1h-19" value="&lt;font style=&quot;vertical-align: inherit;&quot;&gt;&lt;font style=&quot;vertical-align: inherit;&quot;&gt;NAO&lt;/font&gt;&lt;/font&gt;" style="edgeStyle=orthogonalEdgeStyle;rounded=0;orthogonalLoop=1;jettySize=auto;html=1;" edge="1" parent="1" source="Oh-GxpIX2GTyTfQmpa1h-9" target="Oh-GxpIX2GTyTfQmpa1h-18">
          <mxGeometry relative="1" as="geometry" />
        </mxCell>
        <mxCell id="Oh-GxpIX2GTyTfQmpa1h-9" value="&lt;font style=&quot;vertical-align: inherit;&quot;&gt;&lt;font style=&quot;vertical-align: inherit;&quot;&gt;DADOS VALIDOS?&lt;/font&gt;&lt;/font&gt;" style="rhombus;whiteSpace=wrap;html=1;" vertex="1" parent="1">
          <mxGeometry x="390" y="60" width="80" height="80" as="geometry" />
        </mxCell>
        <mxCell id="Oh-GxpIX2GTyTfQmpa1h-17" value="" style="edgeStyle=orthogonalEdgeStyle;rounded=0;orthogonalLoop=1;jettySize=auto;html=1;" edge="1" parent="1" source="Oh-GxpIX2GTyTfQmpa1h-13" target="Oh-GxpIX2GTyTfQmpa1h-16">
          <mxGeometry relative="1" as="geometry" />
        </mxCell>
        <mxCell id="Oh-GxpIX2GTyTfQmpa1h-13" value="&lt;font style=&quot;vertical-align: inherit;&quot;&gt;&lt;font style=&quot;vertical-align: inherit;&quot;&gt;&lt;font style=&quot;vertical-align: inherit;&quot;&gt;&lt;font style=&quot;vertical-align: inherit;&quot;&gt;CADASTRAR CLIENTE&lt;/font&gt;&lt;/font&gt;&lt;/font&gt;&lt;/font&gt;" style="whiteSpace=wrap;html=1;" vertex="1" parent="1">
          <mxGeometry x="560" y="70" width="120" height="60" as="geometry" />
        </mxCell>
        <mxCell id="Oh-GxpIX2GTyTfQmpa1h-27" value="" style="edgeStyle=orthogonalEdgeStyle;rounded=0;orthogonalLoop=1;jettySize=auto;html=1;" edge="1" parent="1" source="Oh-GxpIX2GTyTfQmpa1h-16" target="Oh-GxpIX2GTyTfQmpa1h-26">
          <mxGeometry relative="1" as="geometry" />
        </mxCell>
        <mxCell id="Oh-GxpIX2GTyTfQmpa1h-16" value="LISTAR CLIENTE" style="whiteSpace=wrap;html=1;" vertex="1" parent="1">
          <mxGeometry x="760" y="70" width="120" height="60" as="geometry" />
        </mxCell>
        <mxCell id="Oh-GxpIX2GTyTfQmpa1h-20" style="edgeStyle=orthogonalEdgeStyle;rounded=0;orthogonalLoop=1;jettySize=auto;html=1;entryX=0;entryY=0.5;entryDx=0;entryDy=0;" edge="1" parent="1" source="Oh-GxpIX2GTyTfQmpa1h-18" target="Oh-GxpIX2GTyTfQmpa1h-2">
          <mxGeometry relative="1" as="geometry">
            <Array as="points">
              <mxPoint x="250" y="-290" />
            </Array>
          </mxGeometry>
        </mxCell>
        <mxCell id="Oh-GxpIX2GTyTfQmpa1h-18" value="&lt;font style=&quot;vertical-align: inherit;&quot;&gt;&lt;font style=&quot;vertical-align: inherit;&quot;&gt;MOSTRAR ERRO&lt;/font&gt;&lt;/font&gt;" style="whiteSpace=wrap;html=1;" vertex="1" parent="1">
          <mxGeometry x="190" y="70" width="120" height="60" as="geometry" />
        </mxCell>
        <mxCell id="Oh-GxpIX2GTyTfQmpa1h-25" style="edgeStyle=orthogonalEdgeStyle;rounded=0;orthogonalLoop=1;jettySize=auto;html=1;exitX=0.5;exitY=1;exitDx=0;exitDy=0;" edge="1" parent="1">
          <mxGeometry relative="1" as="geometry">
            <mxPoint x="730" y="280" as="sourcePoint" />
            <mxPoint x="730" y="280" as="targetPoint" />
          </mxGeometry>
        </mxCell>
        <mxCell id="Oh-GxpIX2GTyTfQmpa1h-29" value="" style="edgeStyle=orthogonalEdgeStyle;rounded=0;orthogonalLoop=1;jettySize=auto;html=1;" edge="1" parent="1" source="Oh-GxpIX2GTyTfQmpa1h-26" target="Oh-GxpIX2GTyTfQmpa1h-28">
          <mxGeometry relative="1" as="geometry" />
        </mxCell>
        <mxCell id="Oh-GxpIX2GTyTfQmpa1h-26" value="&lt;div&gt;&lt;font style=&quot;vertical-align: inherit;&quot;&gt;&lt;font style=&quot;vertical-align: inherit;&quot;&gt;&lt;font style=&quot;vertical-align: inherit;&quot;&gt;&lt;font style=&quot;vertical-align: inherit;&quot;&gt;BUSCAR CLIENTE&lt;/font&gt;&lt;/font&gt;&lt;/font&gt;&lt;/font&gt;&lt;/div&gt;" style="whiteSpace=wrap;html=1;" vertex="1" parent="1">
          <mxGeometry x="760" y="-70" width="120" height="60" as="geometry" />
        </mxCell>
        <mxCell id="Oh-GxpIX2GTyTfQmpa1h-33" value="&lt;font style=&quot;vertical-align: inherit;&quot;&gt;&lt;font style=&quot;vertical-align: inherit;&quot;&gt;NAO&lt;/font&gt;&lt;/font&gt;" style="edgeStyle=orthogonalEdgeStyle;rounded=0;orthogonalLoop=1;jettySize=auto;html=1;" edge="1" parent="1" source="Oh-GxpIX2GTyTfQmpa1h-28" target="Oh-GxpIX2GTyTfQmpa1h-32">
          <mxGeometry relative="1" as="geometry" />
        </mxCell>
        <mxCell id="Oh-GxpIX2GTyTfQmpa1h-36" value="SIM" style="edgeStyle=orthogonalEdgeStyle;rounded=0;orthogonalLoop=1;jettySize=auto;html=1;" edge="1" parent="1" source="Oh-GxpIX2GTyTfQmpa1h-28" target="Oh-GxpIX2GTyTfQmpa1h-35">
          <mxGeometry relative="1" as="geometry" />
        </mxCell>
        <mxCell id="Oh-GxpIX2GTyTfQmpa1h-28" value="&lt;font style=&quot;vertical-align: inherit;&quot;&gt;&lt;font style=&quot;vertical-align: inherit;&quot;&gt;CLIENTE EXISTE?&lt;/font&gt;&lt;/font&gt;" style="rhombus;whiteSpace=wrap;html=1;" vertex="1" parent="1">
          <mxGeometry x="780" y="-220" width="80" height="80" as="geometry" />
        </mxCell>
        <mxCell id="Oh-GxpIX2GTyTfQmpa1h-34" style="edgeStyle=orthogonalEdgeStyle;rounded=0;orthogonalLoop=1;jettySize=auto;html=1;entryX=0.5;entryY=0;entryDx=0;entryDy=0;" edge="1" parent="1" source="Oh-GxpIX2GTyTfQmpa1h-32" target="Oh-GxpIX2GTyTfQmpa1h-13">
          <mxGeometry relative="1" as="geometry">
            <mxPoint x="630" y="10" as="targetPoint" />
            <Array as="points">
              <mxPoint x="620" y="-90" />
              <mxPoint x="620" y="-90" />
            </Array>
          </mxGeometry>
        </mxCell>
        <mxCell id="Oh-GxpIX2GTyTfQmpa1h-32" value="&lt;font style=&quot;vertical-align: inherit;&quot;&gt;&lt;font style=&quot;vertical-align: inherit;&quot;&gt;MOSTRAR ERRO&lt;/font&gt;&lt;/font&gt;" style="whiteSpace=wrap;html=1;" vertex="1" parent="1">
          <mxGeometry x="570" y="-210" width="120" height="60" as="geometry" />
        </mxCell>
        <mxCell id="Oh-GxpIX2GTyTfQmpa1h-45" value="SIM" style="edgeStyle=orthogonalEdgeStyle;rounded=0;orthogonalLoop=1;jettySize=auto;html=1;" edge="1" parent="1" source="Oh-GxpIX2GTyTfQmpa1h-35" target="Oh-GxpIX2GTyTfQmpa1h-44">
          <mxGeometry relative="1" as="geometry" />
        </mxCell>
        <mxCell id="Oh-GxpIX2GTyTfQmpa1h-47" value="NAO" style="edgeStyle=orthogonalEdgeStyle;rounded=0;orthogonalLoop=1;jettySize=auto;html=1;" edge="1" parent="1" source="Oh-GxpIX2GTyTfQmpa1h-35" target="Oh-GxpIX2GTyTfQmpa1h-46">
          <mxGeometry relative="1" as="geometry" />
        </mxCell>
        <mxCell id="Oh-GxpIX2GTyTfQmpa1h-35" value="APAGAR?" style="rhombus;whiteSpace=wrap;html=1;" vertex="1" parent="1">
          <mxGeometry x="940" y="-220" width="80" height="80" as="geometry" />
        </mxCell>
        <mxCell id="Oh-GxpIX2GTyTfQmpa1h-49" value="SIM" style="edgeStyle=orthogonalEdgeStyle;rounded=0;orthogonalLoop=1;jettySize=auto;html=1;" edge="1" parent="1" source="Oh-GxpIX2GTyTfQmpa1h-44" target="Oh-GxpIX2GTyTfQmpa1h-48">
          <mxGeometry relative="1" as="geometry" />
        </mxCell>
        <mxCell id="Oh-GxpIX2GTyTfQmpa1h-52" value="" style="edgeStyle=orthogonalEdgeStyle;rounded=0;orthogonalLoop=1;jettySize=auto;html=1;" edge="1" parent="1" source="Oh-GxpIX2GTyTfQmpa1h-44" target="Oh-GxpIX2GTyTfQmpa1h-26">
          <mxGeometry relative="1" as="geometry" />
        </mxCell>
        <mxCell id="Oh-GxpIX2GTyTfQmpa1h-53" value="NAO" style="edgeLabel;html=1;align=center;verticalAlign=middle;resizable=0;points=[];" vertex="1" connectable="0" parent="Oh-GxpIX2GTyTfQmpa1h-52">
          <mxGeometry x="-0.3" y="-3" relative="1" as="geometry">
            <mxPoint as="offset" />
          </mxGeometry>
        </mxCell>
        <mxCell id="Oh-GxpIX2GTyTfQmpa1h-44" value="CONFIRMAR&lt;div&gt;APAGAR&lt;/div&gt;" style="rhombus;whiteSpace=wrap;html=1;" vertex="1" parent="1">
          <mxGeometry x="940" y="-80" width="80" height="80" as="geometry" />
        </mxCell>
        <mxCell id="Oh-GxpIX2GTyTfQmpa1h-51" value="SIM" style="edgeStyle=orthogonalEdgeStyle;rounded=0;orthogonalLoop=1;jettySize=auto;html=1;" edge="1" parent="1" source="Oh-GxpIX2GTyTfQmpa1h-46" target="Oh-GxpIX2GTyTfQmpa1h-50">
          <mxGeometry relative="1" as="geometry" />
        </mxCell>
        <mxCell id="Oh-GxpIX2GTyTfQmpa1h-46" value="ATUALIZAR" style="rhombus;whiteSpace=wrap;html=1;" vertex="1" parent="1">
          <mxGeometry x="1100" y="-220" width="80" height="80" as="geometry" />
        </mxCell>
        <mxCell id="Oh-GxpIX2GTyTfQmpa1h-59" style="edgeStyle=orthogonalEdgeStyle;rounded=0;orthogonalLoop=1;jettySize=auto;html=1;entryX=0.5;entryY=0;entryDx=0;entryDy=0;" edge="1" parent="1" source="Oh-GxpIX2GTyTfQmpa1h-48" target="Oh-GxpIX2GTyTfQmpa1h-2">
          <mxGeometry relative="1" as="geometry">
            <Array as="points">
              <mxPoint x="980" y="180" />
              <mxPoint x="90" y="180" />
              <mxPoint x="90" y="-350" />
              <mxPoint x="430" y="-350" />
            </Array>
          </mxGeometry>
        </mxCell>
        <mxCell id="Oh-GxpIX2GTyTfQmpa1h-48" value="APAGAR CADASTRO&lt;div&gt;&lt;br&gt;&lt;/div&gt;" style="whiteSpace=wrap;html=1;" vertex="1" parent="1">
          <mxGeometry x="920" y="70" width="120" height="60" as="geometry" />
        </mxCell>
        <mxCell id="Oh-GxpIX2GTyTfQmpa1h-54" value="NAO" style="edgeStyle=orthogonalEdgeStyle;rounded=0;orthogonalLoop=1;jettySize=auto;html=1;entryX=1;entryY=0.5;entryDx=0;entryDy=0;" edge="1" parent="1" source="Oh-GxpIX2GTyTfQmpa1h-50" target="Oh-GxpIX2GTyTfQmpa1h-46">
          <mxGeometry relative="1" as="geometry">
            <Array as="points">
              <mxPoint x="1200" y="-20" />
              <mxPoint x="1200" y="-180" />
            </Array>
          </mxGeometry>
        </mxCell>
        <mxCell id="Oh-GxpIX2GTyTfQmpa1h-56" value="" style="edgeStyle=orthogonalEdgeStyle;rounded=0;orthogonalLoop=1;jettySize=auto;html=1;" edge="1" parent="1" source="Oh-GxpIX2GTyTfQmpa1h-50" target="Oh-GxpIX2GTyTfQmpa1h-55">
          <mxGeometry relative="1" as="geometry" />
        </mxCell>
        <mxCell id="Oh-GxpIX2GTyTfQmpa1h-50" value="DADOS VALIDOS?" style="rhombus;whiteSpace=wrap;html=1;" vertex="1" parent="1">
          <mxGeometry x="1100" y="-60" width="80" height="80" as="geometry" />
        </mxCell>
        <mxCell id="Oh-GxpIX2GTyTfQmpa1h-57" value="SIM" style="edgeStyle=orthogonalEdgeStyle;rounded=0;orthogonalLoop=1;jettySize=auto;html=1;" edge="1" parent="1" source="Oh-GxpIX2GTyTfQmpa1h-55" target="Oh-GxpIX2GTyTfQmpa1h-50">
          <mxGeometry relative="1" as="geometry" />
        </mxCell>
        <mxCell id="Oh-GxpIX2GTyTfQmpa1h-58" style="edgeStyle=orthogonalEdgeStyle;rounded=0;orthogonalLoop=1;jettySize=auto;html=1;entryX=1;entryY=0.5;entryDx=0;entryDy=0;" edge="1" parent="1" source="Oh-GxpIX2GTyTfQmpa1h-55" target="Oh-GxpIX2GTyTfQmpa1h-2">
          <mxGeometry relative="1" as="geometry">
            <Array as="points">
              <mxPoint x="1290" y="100" />
              <mxPoint x="1290" y="-290" />
            </Array>
          </mxGeometry>
        </mxCell>
        <mxCell id="Oh-GxpIX2GTyTfQmpa1h-55" value="ATUALIZAR CLIENTE" style="whiteSpace=wrap;html=1;" vertex="1" parent="1">
          <mxGeometry x="1080" y="70" width="120" height="60" as="geometry" />
        </mxCell>
      </root>
    </mxGraphModel>
  </diagram>
</mxfile>
